<svg xmlns="http://www.w3.org/2000/svg" viewBox="0 0 300 300">
  <defs>
    <radialGradient id="bg" cx="50%" cy="42%" r="80%">
      <stop offset="0%" stop-color="#4a3a20"/>
      <stop offset="100%" stop-color="#1a1206"/>
    </radialGradient>
    <linearGradient id="gold" x1="0" y1="0" x2="0" y2="1">
      <stop offset="0%" stop-color="#ffd98a"/>
      <stop offset="100%" stop-color="#b8860b"/>
    </linearGradient>
  </defs>
  <rect width="300" height="300" fill="url(#bg)"/>
  <circle cx="150" cy="140" r="84" fill="none" stroke="#ffffff14" stroke-width="2"/>
  <g fill="url(#gold)" stroke="#8a6208" stroke-width="3">
    <rect x="128" y="120" width="78" height="100" rx="14"/>
    <rect x="132" y="66" width="14" height="60" rx="7"/>
    <rect x="152" y="56" width="14" height="70" rx="7"/>
    <rect x="172" y="66" width="14" height="60" rx="7"/>
    <rect x="188" y="126" width="16" height="46" rx="8"/>
    <rect x="128" y="220" width="78" height="40" rx="10"/>
  </g>
  <circle cx="139" cy="82" r="5" fill="#8b5cf6"/>
  <circle cx="159" cy="76" r="5" fill="#3b82f6"/>
  <circle cx="179" cy="82" r="5" fill="#ef4444"/>
  <circle cx="150" cy="142" r="6" fill="#f59e0b"/>
  <circle cx="170" cy="142" r="6" fill="#10b981"/>
  <circle cx="160" cy="160" r="6" fill="#f8fafc" stroke="#cbd5e1"/>
  <text x="150" y="283" text-anchor="middle" font-family="Georgia,serif" font-size="15" fill="#ffffff7a">Guanto dell'Infinito</text>
</svg>